<svg width="170" height="17" viewBox="0 0 170 17" fill="none" xmlns="http://www.w3.org/2000/svg">
<path d="M164.106 9.44556L161.18 0.601562H163.754L165.404 6.25556H165.448L167.098 0.601562H169.452L166.526 9.44556V16.0016H164.106V9.44556Z" fill="#080808"/>
<path d="M150.047 0.601562H153.501L155.041 11.6236H155.085L156.625 0.601562H160.079V16.0016H157.791V4.34156H157.747L155.987 16.0016H153.963L152.203 4.34156H152.159V16.0016H150.047V0.601562Z" fill="#080808"/>
<path d="M142.055 0.601562H148.655V2.80156H144.475V6.87156H147.797V9.07156H144.475V13.8016H148.655V16.0016H142.055V0.601562Z" fill="#080808"/>
<path d="M133.117 0.601562H136.813C138.016 0.601562 138.918 0.92423 139.519 1.56956C140.121 2.2149 140.421 3.1609 140.421 4.40756V12.1956C140.421 13.4422 140.121 14.3882 139.519 15.0336C138.918 15.6789 138.016 16.0016 136.813 16.0016H133.117V0.601562ZM136.769 13.8016C137.165 13.8016 137.466 13.6842 137.671 13.4496C137.891 13.2149 138.001 12.8336 138.001 12.3056V4.29756C138.001 3.76956 137.891 3.38823 137.671 3.15356C137.466 2.9189 137.165 2.80156 136.769 2.80156H135.537V13.8016H136.769Z" fill="#080808"/>
<path d="M126.156 0.601562H129.434L131.942 16.0016H129.522L129.082 12.9436V12.9876H126.332L125.892 16.0016H123.648L126.156 0.601562ZM128.796 10.8976L127.718 3.28556H127.674L126.618 10.8976H128.796Z" fill="#080808"/>
<path d="M119.275 16.2189C118.116 16.2189 117.229 15.8889 116.613 15.2289C116.012 14.5689 115.711 13.6376 115.711 12.4349V4.16291C115.711 2.96024 116.012 2.02891 116.613 1.36891C117.229 0.708906 118.116 0.378906 119.275 0.378906C120.434 0.378906 121.314 0.708906 121.915 1.36891C122.531 2.02891 122.839 2.96024 122.839 4.16291V5.79091H120.551V4.00891C120.551 3.05557 120.148 2.57891 119.341 2.57891C118.534 2.57891 118.131 3.05557 118.131 4.00891V12.6109C118.131 13.5496 118.534 14.0189 119.341 14.0189C120.148 14.0189 120.551 13.5496 120.551 12.6109V10.2569H122.839V12.4349C122.839 13.6376 122.531 14.5689 121.915 15.2289C121.314 15.8889 120.434 16.2189 119.275 16.2189Z" fill="#080808"/>
<path d="M108.953 0.601562H112.231L114.739 16.0016H112.319L111.879 12.9436V12.9876H109.129L108.689 16.0016H106.445L108.953 0.601562ZM111.593 10.8976L110.515 3.28556H110.471L109.415 10.8976H111.593Z" fill="#080808"/>
<path d="M98.5171 16.2189C97.3438 16.2189 96.4565 15.8889 95.8551 15.2289C95.2538 14.5542 94.9531 13.5936 94.9531 12.3469V11.4669H97.2411V12.5229C97.2411 13.5202 97.6591 14.0189 98.4951 14.0189C98.9058 14.0189 99.2138 13.9016 99.4191 13.6669C99.6391 13.4176 99.7491 13.0216 99.7491 12.4789C99.7491 11.8336 99.6025 11.2689 99.3091 10.7849C99.0158 10.2862 98.4731 9.69224 97.6811 9.00291C96.6838 8.12291 95.9871 7.33091 95.5911 6.62691C95.1951 5.90824 94.9971 5.10157 94.9971 4.20691C94.9971 2.98957 95.3051 2.05091 95.9211 1.39091C96.5371 0.71624 97.4318 0.378906 98.6051 0.378906C99.7638 0.378906 100.636 0.71624 101.223 1.39091C101.824 2.05091 102.125 3.00424 102.125 4.25091V4.88891H99.8371V4.09691C99.8371 3.56891 99.7345 3.18757 99.5291 2.95291C99.3238 2.70357 99.0231 2.57891 98.6271 2.57891C97.8205 2.57891 97.4171 3.07024 97.4171 4.05291C97.4171 4.61024 97.5638 5.13091 97.8571 5.61491C98.1651 6.09891 98.7151 6.68557 99.5071 7.37491C100.519 8.25491 101.216 9.05424 101.597 9.77291C101.978 10.4916 102.169 11.3349 102.169 12.3029C102.169 13.5642 101.854 14.5322 101.223 15.2069C100.607 15.8816 99.7051 16.2189 98.5171 16.2189Z" fill="#080808"/>
<path d="M91.1406 0.601562H93.5606V16.0016H91.1406V0.601562Z" fill="#080808"/>
<path d="M81.75 0.601562H84.786L87.14 9.81956H87.184V0.601562H89.34V16.0016H86.854L83.95 4.75956H83.906V16.0016H81.75V0.601562Z" fill="#080808"/>
<path d="M72.3594 0.601562H75.3954L77.7494 9.81956H77.7934V0.601562H79.9494V16.0016H77.4634L74.5594 4.75956H74.5154V16.0016H72.3594V0.601562Z" fill="#080808"/>
<path d="M64.3672 0.601562H70.9672V2.80156H66.7872V6.87156H70.1092V9.07156H66.7872V13.8016H70.9672V16.0016H64.3672V0.601562Z" fill="#080808"/>
<path d="M58.2487 2.80156H55.7188V0.601562H63.1988V2.80156H60.6688V16.0016H58.2487V2.80156Z" fill="#080808"/>
<path d="M43.4453 0.601562H46.4813L48.8353 9.81956H48.8793V0.601562H51.0353V16.0016H48.5493L45.6453 4.75956H45.6013V16.0016H43.4453V0.601562Z" fill="#080808"/>
<path d="M36.4846 0.601562H39.7626L42.2706 16.0016H39.8506L39.4106 12.9436V12.9876H36.6606L36.2206 16.0016H33.9766L36.4846 0.601562ZM39.1246 10.8976L38.0466 3.28556H38.0026L36.9466 10.8976H39.1246Z" fill="#080808"/>
<path d="M30.3828 0.601562H32.8028V16.0016H30.3828V0.601562Z" fill="#080808"/>
<path d="M25.3374 16.2189C24.1641 16.2189 23.2768 15.8889 22.6754 15.2289C22.0741 14.5542 21.7734 13.5936 21.7734 12.3469V11.4669H24.0614V12.5229C24.0614 13.5202 24.4794 14.0189 25.3154 14.0189C25.7261 14.0189 26.0341 13.9016 26.2394 13.6669C26.4594 13.4176 26.5694 13.0216 26.5694 12.4789C26.5694 11.8336 26.4228 11.2689 26.1294 10.7849C25.8361 10.2862 25.2934 9.69224 24.5014 9.00291C23.5041 8.12291 22.8074 7.33091 22.4114 6.62691C22.0154 5.90824 21.8174 5.10157 21.8174 4.20691C21.8174 2.98957 22.1254 2.05091 22.7414 1.39091C23.3574 0.71624 24.2521 0.378906 25.4254 0.378906C26.5841 0.378906 27.4568 0.71624 28.0434 1.39091C28.6448 2.05091 28.9454 3.00424 28.9454 4.25091V4.88891H26.6574V4.09691C26.6574 3.56891 26.5548 3.18757 26.3494 2.95291C26.1441 2.70357 25.8434 2.57891 25.4474 2.57891C24.6408 2.57891 24.2374 3.07024 24.2374 4.05291C24.2374 4.61024 24.3841 5.13091 24.6774 5.61491C24.9854 6.09891 25.5354 6.68557 26.3274 7.37491C27.3394 8.25491 28.0361 9.05424 28.4174 9.77291C28.7988 10.4916 28.9894 11.3349 28.9894 12.3029C28.9894 13.5642 28.6741 14.5322 28.0434 15.2069C27.4274 15.8816 26.5254 16.2189 25.3374 16.2189Z" fill="#080808"/>
<path d="M16.1057 9.44556L13.1797 0.601562H15.7537L17.4037 6.25556H17.4477L19.0977 0.601562H21.4517L18.5257 9.44556V16.0016H16.1057V9.44556Z" fill="#080808"/>
<path d="M8.25 0.601562H10.67V13.8016H14.652V16.0016H8.25V0.601562Z" fill="#080808"/>
<path d="M0.257812 0.601562H6.85781V2.80156H2.67781V6.87156H5.99981V9.07156H2.67781V13.8016H6.85781V16.0016H0.257812V0.601562Z" fill="#080808"/>
</svg>
