<svg width="24" height="24" viewBox="0 0 24 24" fill="none" xmlns="http://www.w3.org/2000/svg">
<path fill-rule="evenodd" clip-rule="evenodd" d="M20.1 6.89987C20.4829 7.39092 20.7311 7.97335 20.82 8.58963C20.9319 9.50538 20.992 10.4267 21 11.3492V12.6391C20.9924 13.5649 20.9323 14.4896 20.82 15.4087C20.7311 16.0249 20.4829 16.6074 20.1 17.0984C19.6125 17.5571 18.9694 17.8143 18.3 17.8183C15.78 17.9983 12 17.9983 12 17.9983C12 17.9983 7.32 17.9983 5.9 17.8283C5.16881 17.8245 4.46173 17.5664 3.9 17.0984C3.5155 16.6045 3.26725 16.0184 3.18 15.3987C3.06803 14.4829 3.00794 13.5616 3 12.6391V11.3492C3.00756 10.4234 3.06766 9.49869 3.18 8.57963C3.26893 7.96335 3.5171 7.38093 3.9 6.88987C4.38752 6.4312 5.0306 6.17401 5.7 6.16998C8.22 6 12 6 12 6C12 6 15.78 6 18.3 6.17997C18.9694 6.18401 19.6125 6.4412 20.1 6.89987ZM16 12L10 9V15L16 12Z" fill="#5A5A5A"/>
</svg>
