<svg width="24" height="24" viewBox="0 0 24 24" fill="none" xmlns="http://www.w3.org/2000/svg">
<path fill-rule="evenodd" clip-rule="evenodd" d="M8.28999 3.04999C9.24999 3 9.55999 3 12 3C14.44 3 14.75 3 15.72 3.04999C16.4651 3.06608 17.2022 3.20807 17.9 3.46993C19.1042 3.94639 20.0518 4.90836 20.51 6.11956C20.7719 6.81725 20.9139 7.5542 20.93 8.29925C20.98 9.25911 20.98 9.56907 20.98 12.0087C20.98 13.4961 20.9614 14.1771 20.9469 14.7086C20.9376 15.0489 20.93 15.3279 20.93 15.7182C20.9139 16.4632 20.7719 17.2002 20.51 17.8979C20.0426 19.1055 19.0878 20.0602 17.88 20.5275C17.1822 20.7894 16.4451 20.9314 15.7 20.9474C14.74 20.9974 14.43 20.9974 11.9903 20.9974H11.99C10.5024 20.9974 9.82135 20.9789 9.28974 20.9643C8.94941 20.9551 8.67031 20.9474 8.27999 20.9474C7.53485 20.9314 6.79779 20.7894 6.1 20.5275C4.89018 20.058 3.93501 19.0993 3.47 17.8879C3.2081 17.1902 3.06609 16.4532 3.05 15.7082C3 14.7483 3 14.4384 3 11.9987C3 9.55907 3 9.24911 3.05 8.27925C3.06609 7.53421 3.2081 6.79725 3.47 6.09956C3.93961 4.88991 4.8984 3.93488 6.11 3.46993C6.80779 3.20807 7.54485 3.06608 8.28999 3.04999ZM15.64 4.66999C14.69 4.62 14.4 4.62 12 4.62V4.64C10.5195 4.64 9.84283 4.65886 9.32086 4.67342C8.99314 4.68255 8.7264 4.68999 8.35999 4.68999C7.78972 4.69732 7.22491 4.80215 6.69 4.99995C5.9169 5.30483 5.30493 5.91671 5 6.6897C4.80218 7.22454 4.69733 7.78927 4.69 8.35946C4.64 9.30933 4.64 9.58929 4.64 11.9989C4.64 13.4792 4.65887 14.1558 4.67342 14.6777C4.68256 15.0054 4.69 15.2721 4.69 15.6384C4.69733 16.2086 4.80218 16.7733 5 17.3082C5.30493 18.0812 5.9169 18.693 6.69 18.9979C7.22491 19.1957 7.78972 19.3006 8.35999 19.3079C9.30999 19.3579 9.58999 19.3579 12 19.3579C13.4805 19.3579 14.1571 19.339 14.6791 19.3245C15.0068 19.3153 15.2736 19.3079 15.64 19.3079C16.2102 19.3006 16.7751 19.1957 17.31 18.9979C18.0831 18.693 18.695 18.0812 19 17.3082C19.1978 16.7733 19.3026 16.2086 19.31 15.6384C19.36 14.6886 19.36 14.4086 19.36 11.9989C19.36 10.5187 19.3411 9.84209 19.3265 9.32019C19.3174 8.99252 19.31 8.72582 19.31 8.35946C19.3026 7.78927 19.1978 7.22454 19 6.6897C18.695 5.91671 18.0831 5.30483 17.31 4.99995C16.7763 4.79533 16.2114 4.68372 15.64 4.66999Z" fill="#5A5A5A"/>
<path fill-rule="evenodd" clip-rule="evenodd" d="M7.37891 11.9992C7.37891 9.44803 9.44735 7.37988 11.9989 7.37988C13.2242 7.37988 14.3993 7.86656 15.2657 8.73286C16.1321 9.59915 16.6189 10.7741 16.6189 11.9992C16.6189 14.5504 14.5505 16.6186 11.9989 16.6186C9.44735 16.6186 7.37891 14.5504 7.37891 11.9992ZM9 12C9 13.6569 10.3431 15 12 15C12.7956 15 13.5587 14.6839 14.1213 14.1213C14.6839 13.5587 15 12.7956 15 12C15 10.3431 13.6569 9 12 9C10.3431 9 9 10.3431 9 12Z" fill="#5A5A5A"/>
<path fill-rule="evenodd" clip-rule="evenodd" d="M16.7988 8.28012C17.3952 8.28012 17.8788 7.79658 17.8788 7.20012C17.8788 6.60365 17.3952 6.12012 16.7988 6.12012C16.2023 6.12012 15.7188 6.60365 15.7188 7.20012C15.7188 7.79658 16.2023 8.28012 16.7988 8.28012Z" fill="#5A5A5A"/>
</svg>
